<?xml version="1.0" encoding="utf-8"?>
<!-- Generator: Adobe Illustrator 16.0.4, SVG Export Plug-In . SVG Version: 6.00 Build 0)  -->
<!DOCTYPE svg PUBLIC "-//W3C//DTD SVG 1.1//EN" "http://www.w3.org/Graphics/SVG/1.1/DTD/svg11.dtd">
<svg version="1.1" id="Online" xmlns="http://www.w3.org/2000/svg" xmlns:xlink="http://www.w3.org/1999/xlink" x="0px" y="0px"
	 width="113.386px" height="96.378px" viewBox="0 0 113.386 96.378" enable-background="new 0 0 113.386 96.378"
	 xml:space="preserve">
<g>
	<g id="Mouse">
		<path fill="#FFFFFF" d="M66.35,17.259c7.032,1.979,10.688,3.071,19.604,6.198c2.159,0.704,6.628,1.893,7.972,4.699
			c3.797-2.939,12.007-9.247,16.417-12.044c-0.663-1.437-1.795-2.694-3.554-3.656c-5.327-2.913-8.298-3.388-15.281-5.754
			C82.096,6.449,70.265,14.391,66.35,17.259z"/>
		<path fill="#FFFFFF" d="M60.175,15.308c2.122-1.841,14.589-11.102,21.447-11.744c-5.029-1.234-11.285-2.433-16.565-2.843
			C53.102-0.207,41.496,7.171,36.44,10.89C41.083,11.4,49.418,12.51,60.175,15.308z"/>
		<path fill="#FFFFFF" d="M42.505,82.003c7.975-1.523,12.998-5.891,17.477-15.232c0,0,1.759-2.915,1.819-3.012
			c4.329-7.073,7.593-12.694,26.836-30.193c-0.351-2.708-5.486-4.402-5.486-4.402C50.473,16.865,32.903,16.717,29.453,16.548
			c-0.167,0.122-0.333,0.242-0.498,0.358C23.325,20.877,1.345,39.646,0.02,62.8c0,0-0.074,0.988,0.064,2.036
			C1.532,66.075,24.083,85.522,42.505,82.003z"/>
		<path fill="#FFFFFF" d="M66.05,69.366c-0.007,0.011-0.014,0.021-0.021,0.033c-3.102,3.771-4.455,14.405-21.359,18.467
			c-1.032,0.248-2.101,0.37-3.181,0.471c-8.379,0.784-17.987-1.793-28.622-7.685c-5.165-2.861-9.405-5.877-12.085-7.931
			c1.155,5.772,4.767,13.578,15.375,18.347c18.444,8.292,35.435,5.511,43.186,1.906c8.281-3.853,18.48-13.225,22.887-19.583
			c4.408-6.361,30.285-37.228,30.285-37.228s1.618-1.651,0.443-14.226C84.631,40.505,66.079,69.317,66.05,69.366z"/>
	</g>
</g>
</svg>
