<?xml version="1.0" encoding="utf-8"?>
<!-- Generator: Adobe Illustrator 16.0.4, SVG Export Plug-In . SVG Version: 6.00 Build 0)  -->
<!DOCTYPE svg PUBLIC "-//W3C//DTD SVG 1.1//EN" "http://www.w3.org/Graphics/SVG/1.1/DTD/svg11.dtd">
<svg version="1.1" id="Phone" xmlns="http://www.w3.org/2000/svg" xmlns:xlink="http://www.w3.org/1999/xlink" x="0px" y="0px"
	 width="113.386px" height="99.921px" viewBox="0 0 113.386 99.921" enable-background="new 0 0 113.386 99.921"
	 xml:space="preserve">
<g>
	<path fill="#FFFFFF" d="M111.18,17.364c-1.272-3.473-3.155-6.124-5.64-7.965c-3.682-2.793-9.944-5.059-18.798-6.793
		C77.889,0.868,67.807,0,56.496,0c-11.089,0-21.056,0.887-29.91,2.657C17.732,4.429,11.383,6.742,7.539,9.602
		c-2.492,1.84-4.372,4.464-5.646,7.865c-1.274,3.406-2.18,8.443-1.809,13.208c0.373,4.762,1.292,6.594,2.73,7.685
		c1.438,1.09,4.133,1.632,8.081,1.632h5.501c3.384,0,6.103-0.765,8.163-2.298c2.059-1.528,3.534-2.903,3.874-5.632
		c0.68-2.392,1.726-7.9,3.141-9.269c1.415-1.364,3.391-2.186,5.541-2.458c0.337,1.434,0.562,6.936,0.676,7.617
		c0.113,0.683,0.124,1.806,0.124,2.217c0,2.802-1.481,6.086-4.439,9.841c-1.196,1.434-2.052,2.562-2.563,3.383
		c-2.282,3.557-6.078,10.788-10.122,24.188c-1.374,4.47-2.182,10.89-3.107,13.826h77.485c-0.965-3.114-1.765-9.135-3.181-13.826
		c-3.94-13.192-7.79-20.81-9.985-24.161c-0.45-0.749-1.207-1.811-2.278-3.178c-3.097-3.821-4.645-7.171-4.645-10.045
		c0-0.34,0.069-0.869,0.211-1.586c0.14-0.717,0.531-6.813,0.869-8.248c2.092,0.274,3.861,1.094,5.302,2.453
		c1.442,1.359,2.506,3.808,3.187,6.19c0.341,2.729,1.736,7.159,3.806,8.688c2.07,1.533,4.806,2.298,8.212,2.298h5.617
		c3.856,0,6.508-0.525,7.954-1.581c1.448-1.056,2.479-1.803,3.025-7.87C113.808,24.471,112.456,20.835,111.18,17.364z
		 M51.382,18.218c2.082-0.274,3.907-0.412,5.475-0.412c1.564,0,3.356,0.137,5.373,0.412c2.014,0.272,4.455,0.684,7.324,1.227
		l-2.352,13.801h-0.807c-4.437-0.274-7.66-0.411-9.673-0.411c-2.016,0-5.262,0.137-9.74,0.411h-0.403l-2.351-13.801
		C46.912,18.902,49.298,18.49,51.382,18.218z M56.693,76.315c-9.07,0-16.424-7.472-16.424-16.688
		c0-9.217,7.354-16.689,16.424-16.689c9.071,0,16.423,7.472,16.423,16.689C73.116,68.844,65.764,76.315,56.693,76.315z"/>
	<path fill="#FFFFFF" d="M16.943,89.147c0,0.823,0.026,1.715,0.081,2.672c0.055,0.958,0.173,2.392,0.344,4.308
		c0.056,0.613,0.196,1.161,0.422,1.643c0.227,0.48,0.508,0.887,0.853,1.225c5.711,0.345,11.921,0.585,18.031,0.723
		c6.111,0.136,12.68,0.203,19.696,0.203c7.072,0,13.669-0.067,19.78-0.203c6.11-0.138,12.388-0.344,18.046-0.62
		c0.621-0.749,1.06-2.014,1.317-3.792c0.223-1.56,0.351-4.235,0.377-8.02H16.943V89.147z"/>
</g>
</svg>
